#!OML:ASF F:\VICON\USERDATA\INSTALL\rory3\rory3.ASF
:FULLY-SPECIFIED
:DEGREES
2208
root 2.21605 15.7214 -3.10566 338.344 -68.2703 3.59076
lowerback 24.3661 1.75017 -0.560183
upperback 11.2531 1.52664 3.24439
thorax -1.26453 0.330953 3.4498
lowerneck -21.1045 4.19323 -6.05279
upperneck 15.8388 7.15484 1.9113
head 8.076 3.20869 2.51886
rclavicle -6.87795e-014 1.82882e-014
rhumerus -28.3504 17.7709 -81.2104
rradius 93.8238
rwrist 18.847
rhand -35.6916 11.1052
rfingers 7.12502
rthumb -8.81221 -18.6908
lclavicle -6.87795e-014 1.82882e-014
lhumerus -28.3283 -30.3058 92.4262
lradius 78.3637
lwrist -6.6706
lhand -38.9023 8.6448
lfingers 7.12502
lthumb -11.9095 38.2861
rfemur -58.1187 -18.3007 20.9353
rtibia 104.484
rfoot 15.8084 -10.7896
rtoes 13.1339
lfemur -56.4427 16.6036 -19.5512
ltibia 97.8246
lfoot 16.9416 -4.29579
ltoes -10.1986
2209
root 2.21972 15.7234 -3.11152 338.156 -68.3665 3.75163
lowerback 24.3941 1.76278 -0.676559
upperback 11.2211 1.5192 3.21199
thorax -1.31506 0.325305 3.48293
lowerneck -20.9399 4.28488 -6.04931
upperneck 15.6138 7.28492 1.79488
head 7.97183 3.26586 2.4831
rclavicle -4.77083e-015 1.03368e-014
rhumerus -28.2381 18.7136 -81.438
rradius 93.7589
rwrist 19.4589
rhand -34.8097 11.2889
rfingers 7.12502
rthumb -7.96108 -18.5412
lclavicle -4.77083e-015 1.03368e-014
lhumerus -28.3855 -30.7538 92.7284
lradius 78.0106
lwrist -8.31058
lhand -38.4019 8.1417
lfingers 7.12502
lthumb -11.4269 37.8103
rfemur -58.1216 -18.542 20.8632
rtibia 104.784
rfoot 15.7671 -10.9174
rtoes 13.7411
lfemur -56.3866 16.91 -19.5113
ltibia 97.9343
lfoot 16.6933 -4.45054
ltoes -8.77487
2210
root 2.221 15.7209 -3.11567 337.935 -68.4647 3.95314
lowerback 24.4307 1.78616 -0.809493
upperback 11.1849 1.52244 3.18057
thorax -1.37542 0.324707 3.52391
lowerneck -20.9852 4.36115 -6.08707
upperneck 15.5671 7.41971 1.70447
head 7.96066 3.31877 2.4747
rclavicle -3.45885e-014 -2.38542e-015
rhumerus -28.0815 19.4052 -81.7944
rradius 93.5271
rwrist 20.2445
rhand -33.9106 11.6427
rfingers 7.12502
rthumb -7.09328 -18.2184
lclavicle -3.45885e-014 -2.38542e-015
lhumerus -28.3512 -31.118 92.8964
lradius 77.6019
lwrist -10.0083
lhand -38.4106 8.07705
lfingers 7.12502
lthumb -11.4353 37.7452
rfemur -58.1169 -18.8099 20.7644
rtibia 105.077
rfoot 15.591 -11.077
rtoes 14.7523
lfemur -56.3577 17.3949 -19.5305
ltibia 98.0848
lfoot 16.5703 -4.89298
ltoes -8.77825
2211
root 2.2095 15.6877 -3.11146 337.899 -68.5625 4.01236
lowerback 24.4365 1.78624 -0.900952
upperback 11.13 1.5071 3.16459
thorax -1.4396 0.31701 3.56258
lowerneck -21.141 4.4674 -6.1531
upperneck 15.6561 7.59763 1.70183
head 8.00675 3.39496 2.51235
rclavicle 2.0276e-014 -1.51076e-014
rhumerus -27.9564 19.9475 -82.1938
rradius 93.2395
rwrist 21.1693
rhand -33.1429 11.9389
rfingers 7.12502
rthumb -6.35219 -17.9458
lclavicle 2.0276e-014 -1.51076e-014
lhumerus -28.2731 -31.4269 92.9337
lradius 77.31
lwrist -11.4855
lhand -38.2261 8.40628
lfingers 7.12502
lthumb -11.2573 38.0842
rfemur -58.3605 -19.127 20.7866
rtibia 105.529
rfoot 15.5472 -11.0775
rtoes 14.6776
lfemur -56.618 17.9554 -19.4956
ltibia 98.4491
lfoot 16.66 -5.65902
ltoes -9.97645
2212
root 2.21031 15.6862 -3.11304 337.977 -68.7046 3.99357
lowerback 24.3541 1.78478 -0.945251
upperback 11.0948 1.49846 3.1278
thorax -1.43855 0.31417 3.55026
lowerneck -21.2956 4.60653 -6.09811
upperneck 15.7582 7.78672 1.68783
head 8.06153 3.48207 2.5294
rclavicle -3.45885e-014 -7.95139e-016
rhumerus -27.8868 20.6937 -82.5059
rradius 92.9823
rwrist 21.8998
rhand -32.5901 12.076
rfingers 7.12502
rthumb -5.81846 -17.8241
lclavicle -3.45885e-014 -7.95139e-016
lhumerus -27.9706 -30.9683 92.5138
lradius 76.8792
lwrist -14.3209
lhand -35.8521 5.12997
lfingers 7.12502
lthumb -8.96712 34.9194
rfemur -58.4609 -19.3206 20.8775
rtibia 105.763
rfoot 15.5785 -10.916
rtoes 15.5569
lfemur -56.6897 18.3172 -19.3301
ltibia 98.6402
lfoot 16.8321 -6.02457
ltoes -9.30238
2213
root 2.21136 15.6881 -3.11368 337.906 -68.8976 4.09591
lowerback 24.2631 1.79935 -0.989293
upperback 11.0906 1.50576 3.04441
thorax -1.39912 0.318872 3.48339
lowerneck -21.3621 4.79251 -5.79419
upperneck 15.7801 7.99339 1.48675
head 8.09278 3.57501 2.443
rclavicle -2.127e-014 4.85035e-014
rhumerus -27.7801 21.433 -82.7894
rradius 92.6589
rwrist 22.478
rhand -31.8114 12.4557
rfingers 7.12502
rthumb -5.06667 -17.4637
lclavicle -2.127e-014 4.85035e-014
lhumerus -27.8157 -30.8985 92.3072
lradius 76.6275
lwrist -15.6312
lhand -34.5453 3.21263
lfingers 7.12502
lthumb -7.70588 33.0522
rfemur -58.4948 -19.4561 20.8791
rtibia 105.965
rfoot 15.5236 -10.856
rtoes 17.6005
lfemur -56.6432 18.6377 -19.1765
ltibia 98.8166
lfoot 16.8842 -6.41863
ltoes -8.19557
2214
root 2.21232 15.6889 -3.11078 337.779 -69.1012 4.18109
lowerback 24.2314 1.8143 -0.908521
upperback 11.119 1.53508 2.94292
thorax -1.35061 0.337341 3.31993
lowerneck -21.3813 4.92549 -5.6082
upperneck 15.6889 8.14115 1.36444
head 8.07256 3.64584 2.38911
rclavicle 3.26007e-014 -2.38542e-015
rhumerus -27.653 22.1319 -83.0003
rradius 92.2324
rwrist 22.898
rhand -31.2714 12.8706
rfingers 7.12502
rthumb -4.54522 -17.0607
lclavicle 3.26007e-014 -2.38542e-015
lhumerus -27.6738 -31.1088 92.1709
lradius 76.4726
lwrist -16.036
lhand -34.1086 3.19665
lfingers 7.12502
lthumb -7.28437 33.0513
rfemur -58.4106 -19.6427 20.8566
rtibia 106.106
rfoot 15.6601 -10.9945
rtoes 16.4514
lfemur -56.5042 18.9686 -19.0278
ltibia 98.9426
lfoot 16.9136 -6.92877
ltoes -7.95251
